<?xml version="1.0" encoding="utf-8"?>
<!-- Generator: Adobe Illustrator 22.0.1, SVG Export Plug-In . SVG Version: 6.00 Build 0)  -->
<svg version="1.1" id="Layer_1" xmlns="http://www.w3.org/2000/svg" xmlns:xlink="http://www.w3.org/1999/xlink" x="0px" y="0px"
	 viewBox="0 0 100 100" enable-background="new 0 0 100 100" xml:space="preserve">
<path fill="#FFFFFF" d="M50,98.3C50,98.3,50,98.3,50,98.3c-0.6,0-1.2-0.3-1.5-0.7c-1.1-1.3-2.2-2.7-3.4-3.9
	c-1.5-1.8-3.1-3.6-4.6-5.4C32.8,78.5,26.9,70.2,22,62c-2.3-4-4.4-8.2-6.2-12.6c-3.1-7.6-3.1-15.4,0-23.3
	C21.1,12.7,31.1,4.5,44.7,2.3l0.4-0.1c1.5-0.3,3-0.5,4.7-0.5c16.9,0,32.4,12.6,36,29.4c1.5,7,0.6,14-2.8,21.4
	c-2.7,5.9-6.2,12-11.1,19.1C66.3,79.8,60,88,52.5,96.5c-0.1,0.2-0.3,0.4-0.5,0.5c-0.1,0.1-0.3,0.3-0.5,0.5
	C51.2,98,50.6,98.3,50,98.3z M49.9,5.7c-1.3,0-2.6,0.2-4,0.4l-0.4,0.1c-12.4,2-21.1,9.2-25.9,21.4c-2.7,6.9-2.7,13.7,0,20.3
	c1.7,4.2,3.7,8.3,6,12.1c4.7,8,10.5,16.2,18.2,25.7c1.4,1.8,2.9,3.5,4.5,5.3c0.6,0.7,1.3,1.5,1.9,2.2c7.1-8.2,13.2-16.1,18.5-23.9
	c4.8-7,8.2-12.9,10.8-18.5c3-6.5,3.8-12.7,2.5-18.9C78.7,17,64.9,5.7,49.9,5.7z M50,54.1c-10.2,0-18.2-8.1-18.2-18.2
	c0-4.8,1.9-9.4,5.3-12.8c3.4-3.5,8-5.4,12.9-5.4c0,0,0,0,0,0c10,0,18.2,8.2,18.2,18.2l0,0C68.3,45.9,60.1,54.1,50,54.1z M50,21.7
	c-3.8,0-7.3,1.5-10,4.2c-2.7,2.7-4.2,6.2-4.1,10c0,8,6.3,14.2,14.2,14.3c7.8,0,14.2-6.4,14.2-14.2l0,0C64.2,28.1,57.9,21.7,50,21.7
	C50,21.7,50,21.7,50,21.7z"/>
</svg>
