<?xml version="1.0" encoding="utf-8"?>
<!-- Generator: Adobe Illustrator 22.0.1, SVG Export Plug-In . SVG Version: 6.00 Build 0)  -->
<svg version="1.1" id="Layer_1" xmlns="http://www.w3.org/2000/svg" xmlns:xlink="http://www.w3.org/1999/xlink" x="0px" y="0px"
	 viewBox="0 0 100 100" enable-background="new 0 0 100 100" xml:space="preserve">
<path fill="#FFFFFF" d="M0.2,100l7.2-26.7c-4.1-7.3-6.2-15.5-6.2-23.9C1.2,22.2,23.4,0,50.6,0C77.8,0,100,22.2,100,49.4
	c0,27.2-22.2,49.4-49.4,49.4c-8.2,0-16.3-2.1-23.5-6L0.2,100z M28.5,82.8l1.7,1c6.2,3.7,13.3,5.7,20.4,5.7c22.1,0,40.1-18,40.1-40.1
	S72.7,9.3,50.6,9.3c-22.1,0-40.1,18-40.1,40.1c0,7.3,2,14.5,5.9,20.8l1,1.7l-4,14.9L28.5,82.8z"/>
<path fill-rule="evenodd" clip-rule="evenodd" fill="#FFFFFF" d="M69,56.3c-2-1.2-4.7-2.6-7.1-1.6c-1.8,0.8-3,3.6-4.2,5.1
	c-0.6,0.8-1.3,0.9-2.3,0.5c-6.9-2.7-12.2-7.4-16-13.7c-0.6-1-0.5-1.8,0.2-2.7c1.2-1.4,2.6-2.9,2.9-4.7c0.3-1.8-0.5-4-1.3-5.6
	c-1-2.1-2-5-4.1-6.2c-1.9-1.1-4.4-0.5-6.1,0.9c-2.9,2.4-4.4,6.1-4.3,9.9c0,1.1,0.1,2.1,0.4,3.1c0.6,2.5,1.7,4.7,3,6.9
	c1,1.6,2,3.2,3.1,4.8c3.7,5,8.3,9.4,13.6,12.6c2.7,1.6,5.5,3.1,8.5,4c3.3,1.1,6.3,2.2,9.9,1.6c3.8-0.7,7.5-3,8.9-6.7
	c0.4-1.1,0.7-2.3,0.4-3.4C74,58.8,70.9,57.4,69,56.3z"/>
</svg>
