<?xml version="1.0" encoding="utf-8"?>
<!-- Generator: Adobe Illustrator 22.0.1, SVG Export Plug-In . SVG Version: 6.00 Build 0)  -->
<svg version="1.1" id="Layer_1" xmlns="http://www.w3.org/2000/svg" xmlns:xlink="http://www.w3.org/1999/xlink" x="0px" y="0px"
	 viewBox="0 0 100 100" enable-background="new 0 0 100 100" xml:space="preserve">
<g>
	<path fill="#FFFFFF" d="M96.3,83.5H3.7c-1.1,0-2-0.9-2-2V18.5c0-1.1,0.9-2,2-2h92.5c1.1,0,2,0.9,2,2v63.1
		C98.3,82.6,97.4,83.5,96.3,83.5z M5.7,79.5h88.5V20.5H5.7V79.5z"/>
	<path fill="#FFFFFF" d="M50,53.3c-0.4,0-0.8-0.1-1.1-0.3L2.6,21.4c-0.9-0.6-1.1-1.9-0.5-2.8c0.6-0.9,1.9-1.1,2.8-0.5L50,48.8
		l45.1-30.8c0.9-0.6,2.2-0.4,2.8,0.5c0.6,0.9,0.4,2.2-0.5,2.8L51.1,52.9C50.8,53.1,50.4,53.3,50,53.3z"/>
</g>
</svg>
