<?xml version="1.0" encoding="utf-8"?>
<!-- Generator: Adobe Illustrator 22.0.1, SVG Export Plug-In . SVG Version: 6.00 Build 0)  -->
<svg version="1.1" id="ELEMENTS" xmlns="http://www.w3.org/2000/svg" xmlns:xlink="http://www.w3.org/1999/xlink" x="0px" y="0px"
	 viewBox="0 0 100 100" enable-background="new 0 0 100 100" xml:space="preserve">
<g>
	<path fill="#FFFFFF" d="M59.5,50c0,5.1-4.2,9.3-9.3,9.3S41,55.1,41,50s4.1-9.2,9.2-9.2S59.5,44.9,59.5,50z"/>
	<path fill="#FFFFFF" d="M61.7,26.2H38.3c-6.7,0-12.1,5.4-12.1,12.1v23.4c0,6.7,5.4,12.1,12.1,12.1h23.4c6.7,0,12.1-5.4,12.1-12.1
		V38.3C73.8,31.6,68.4,26.2,61.7,26.2z M50.2,64.4c-8,0-14.4-6.5-14.4-14.4s6.5-14.4,14.4-14.4c8,0,14.4,6.5,14.4,14.4
		S58.2,64.4,50.2,64.4z M65.5,38c-1.9,0-3.4-1.5-3.4-3.4c0-1.9,1.5-3.5,3.4-3.5c1.9,0,3.5,1.5,3.5,3.5C69,36.5,67.4,38,65.5,38z"/>
	<path fill="#FFFFFF" d="M73.8,0H26.2C11.8,0,0,11.8,0,26.2v47.7C0,88.2,11.8,100,26.2,100h47.7c14.4,0,26.2-11.8,26.2-26.2V26.2
		C100,11.8,88.2,0,73.8,0z M79.3,61.7c0,9.7-7.9,17.6-17.6,17.6H38.3c-9.7,0-17.6-7.9-17.6-17.6V38.3c0-9.7,7.9-17.6,17.6-17.6h23.4
		c9.7,0,17.6,7.9,17.6,17.6V61.7z"/>
</g>
</svg>
