<?xml version="1.0" encoding="utf-8"?>
<!-- Generator: Adobe Illustrator 22.0.1, SVG Export Plug-In . SVG Version: 6.00 Build 0)  -->
<svg version="1.1" id="ELEMENTS" xmlns="http://www.w3.org/2000/svg" xmlns:xlink="http://www.w3.org/1999/xlink" x="0px" y="0px"
	 viewBox="0 0 100 100" enable-background="new 0 0 100 100" xml:space="preserve">
<g>
	<path fill="#FFFFFF" d="M100,26.2v47.7c0,14.4-11.8,26.2-26.1,26.2h-16V66.1h11.6l2.2-14.5H57.8v-9.4c0-4,1.9-7.8,8.1-7.8h6.3V22.2
		c0,0-5.7-1-11.2-1c-11.4,0-18.9,6.9-18.9,19.5v11H29.5v14.5h12.7V100h-16C11.8,100,0,88.2,0,73.8V26.2C0,11.8,11.8,0,26.2,0h47.7
		C88.2,0,100,11.8,100,26.2z"/>
</g>
</svg>
