<?xml version="1.0" encoding="utf-8"?>
<!-- Generator: Adobe Illustrator 22.0.1, SVG Export Plug-In . SVG Version: 6.00 Build 0)  -->
<svg version="1.1" id="ELEMENTS" xmlns="http://www.w3.org/2000/svg" xmlns:xlink="http://www.w3.org/1999/xlink" x="0px" y="0px"
	 viewBox="0 0 100 100" enable-background="new 0 0 100 100" xml:space="preserve">
<path fill="#FFFFFF" d="M74,0H26.2C11.9,0,0.1,11.8,0.1,26.2v47.7c0,14.4,11.8,26.2,26.2,26.2H74c14.4,0,26.2-11.8,26.2-26.2V26.2
	C100.2,11.8,88.4,0,74,0z M78,33c0,0.1,0,0.5-0.3,0.9c-1.3,1.7-2.7,3.3-4.4,4.6c-0.2,0.2-0.7,0.4-0.7,0.7c0,9-2.3,18-8.9,24.5
	c-8.4,8.3-20.9,10.6-32,7.5c-2.2-0.6-4.2-1.4-6.2-2.5c-0.7-0.4-1.3-0.7-2-1.2c-0.1-0.1-0.3-0.2-0.1-0.3c0.1-0.1,0.2-0.1,0.8,0
	c3.1,0.3,6.3-0.2,9.3-1.2c1.6-0.6,5.1-1.7,6.1-3.3c0,0,0,0,0.1-0.1c-0.4-0.1-0.8-0.1-1.2-0.2c-3-0.9-7.1-2.4-9-7.5
	c-0.1-0.3,0-0.5,0.3-0.4c2.5,0.2,3.4,0.1,4.3-0.1c-0.5-0.1-1-0.2-1.4-0.4c-3.8-1.4-6.6-5.2-7.1-9.2c-0.1-0.5-0.1-0.9-0.1-1.3
	c0-0.3,0.1-0.4,0.4-0.2c2,1,4.2,1.2,4.3,1.2c-0.5-0.4-1-0.8-1.4-1.2c-3.3-3.1-4.6-9.5-2-13.5c0.2-0.3,0.3-0.3,0.6,0
	C33.6,36.8,41,40,50,41.3c0.2,0,0.2,0,0.2-0.3c-0.2-1.6-0.2-3.1,0.1-4.7c0.4-1.6,1.2-3.1,2.2-4.4c1-1.3,2.3-2.3,3.7-3
	c1.4-0.8,3-1.2,4.6-1.3c1.7-0.1,3.4,0.1,4.9,0.8c1.2,0.5,2.2,1.1,3.2,1.9c0.2,0.2,0.4,0.4,0.6,0.6C69.6,31,69.7,31,70,31
	c2.3-0.6,4.4-1.4,6.5-2.5c0.1-0.1,0.2-0.1,0.3,0c0.1,0.1,0,0.2,0,0.3c-0.4,1.2-1,2.3-1.8,3.3c-0.5,0.7-1.8,2.3-2.7,2.4
	c1.9-0.3,3.8-0.8,5.5-1.6C78,32.8,78,32.8,78,33C78,32.9,78,32.9,78,33z"/>
</svg>
