<?xml version="1.0" encoding="utf-8"?>
<!-- Generator: Adobe Illustrator 22.0.1, SVG Export Plug-In . SVG Version: 6.00 Build 0)  -->
<svg version="1.1" id="Layer_1" xmlns="http://www.w3.org/2000/svg" xmlns:xlink="http://www.w3.org/1999/xlink" x="0px" y="0px"
	 viewBox="0 0 1200 370" enable-background="new 0 0 1200 370" xml:space="preserve">
<g>
	<g>
		<path fill="#FFFFFF" d="M522.6,172v-46.1c0-2.3,1.7-4.2,4-4.5L555,118c2.7-0.3,5.1,1.8,5.1,4.5v124.2c0,2.5-2,4.5-4.5,4.5h-28.5
			c-2.5,0-4.5-2-4.5-4.5V196h-55.1v50.7c0,2.5-2,4.5-4.5,4.5h-28.5c-2.5,0-4.5-2-4.5-4.5V125.9c0-2.3,1.7-4.2,4-4.5l28.5-3.4
			c2.7-0.3,5.1,1.8,5.1,4.5V172H522.6z"/>
		<path fill="#FFFFFF" d="M599.3,246.7V125.9c0-2.3,1.7-4.2,4-4.5l28.6-3.4c2.7-0.3,5.1,1.8,5.1,4.5v124.2c0,2.5-2,4.5-4.5,4.5
			h-28.6C601.3,251.2,599.3,249.2,599.3,246.7z"/>
		<path fill="#FFFFFF" d="M938.8,128.9c-10.8-7.6-25.2-8.8-43.2-8.8H842c-2.5,0-4.5,2-4.5,4.5v122.1c0,2.5,2,4.5,4.5,4.5h28.6
			c2.5,0,4.5-2,4.5-4.5v-37.1h20.4c17.9,0,32.3-1.6,43.2-9.4c10.9-7.8,14.9-21.2,14.9-35.8C953.5,149.9,949.6,136.5,938.8,128.9z
			 M895.9,187.6c-8.8,0-20.9,0-20.9,0V142c0,0,9-0.2,20-0.2s22.6,4.7,22.6,22.9C917.7,182.8,907,187.6,895.9,187.6z"/>
		<path fill="#FFFFFF" d="M982.6,246.7V125.9c0-2.3,1.7-4.2,4-4.5l28.6-3.4c2.7-0.3,5.1,1.8,5.1,4.5v124.2c0,2.5-2,4.5-4.5,4.5
			h-28.6C984.6,251.2,982.6,249.2,982.6,246.7z"/>
		<path fill="#FFFFFF" d="M1150.8,120.1h28c2.5,0,3.9,2.9,2.4,4.9l-45.2,57.9l50.9,63.5c1.6,2,0.2,4.9-2.4,4.9h-33.7
			c-2.7,0-5.3-1.2-7.1-3.4l-32.1-40.1l-30.8,40c-1.7,2.2-4.4,3.5-7.2,3.5h-28.4c-2.5,0-3.9-2.9-2.4-4.9l49.5-62.5l-47-58.8
			c-1.6-2-0.2-4.9,2.4-4.9h33.6c2.8,0,5.4,1.3,7.1,3.4l28.3,35.5l26.8-35.3C1145.3,121.4,1148,120.1,1150.8,120.1z"/>
		<path fill="#FFFFFF" d="M802.9,186c0-25.8-3.6-44.5-21.3-56.2c-12.1-7.9-27.6-11.8-46.2-11.8c-18.6,0-33.9,3.9-46.1,11.8
			c-17.7,11.6-21.5,30.4-21.5,56.2s3.6,44.5,21.3,56.2c9.9,6.4,21.9,10.2,36.1,11.4l13.9,21.1c6.6,10,17.8,16,29.8,16h14.2
			c2.5,0,4.5-2,4.5-4.5V269c0-2.5-2-4.5-4.5-4.5h-14.2c-3.1,0-6.1-1.6-7.8-4.2l-5.3-8c9.7-1.9,18.2-5.2,25.6-10
			C799.1,230.6,802.9,211.8,802.9,186z M735.3,231.5c-22.6,0-26.4-15.2-26.4-45.4c0-30.3,3.8-45.7,26.4-45.7
			c22.6,0,26.4,15.2,26.4,45.5C761.8,216.3,758,231.5,735.3,231.5z"/>
	</g>
	<g>
		<path fill="#FFFFFF" d="M350.7,80c-35.3,27.2-75.6,44.8-117.4,52.7c-1.7,0.3-3.4,0.6-5.2,0.9c-30.9,5.3-62.5,5.3-93.4,0
			c-1.7-0.3-3.4-0.6-5.2-0.9c-41.7-7.9-82-25.5-117.3-52.7l64.7-64.7l0,0l0,0c3,1.9,6.1,3.8,9.1,5.5c59,33.5,131.9,33.5,190.8,0
			c3.1-1.7,6.1-3.6,9.1-5.5L350.7,80z"/>
		<path fill="#FFFFFF" d="M350.7,289.1l-22.8,22.8L286,353.8c-3-1.9-6.1-3.8-9.1-5.5c-59-33.5-131.8-33.5-190.8,0
			c-3.1,1.7-6.1,3.6-9.1,5.5l0,0l0,0l-64.7-64.7c35.3-27.2,75.6-44.8,117.4-52.7c1.7-0.3,3.4-0.6,5.2-0.9c30.9-5.2,62.5-5.2,93.4,0
			c1.7,0.3,3.4,0.6,5.2,0.9C275.1,244.4,315.4,261.9,350.7,289.1z"/>
		<path fill="#FFFFFF" d="M345.2,280c1.8,3.1,3.6,6.1,5.5,9.1l0,0l-22.8,22.8L286,353.8c-27.2-35.3-44.8-75.6-52.7-117.4
			c-0.3-1.7-0.6-3.4-0.9-5.2c-5.3-30.9-5.3-62.5,0-93.4c0.3-1.7,0.6-3.4,0.9-5.2c7.9-41.8,25.5-82.1,52.7-117.4L350.7,80
			c-1.9,3-3.8,6.1-5.5,9.1C311.7,148.2,311.7,221,345.2,280z"/>
		<path fill="#FFFFFF" d="M130.5,231.3c-0.3,1.7-0.6,3.4-0.9,5.2c-7.9,41.8-25.5,82.1-52.7,117.4l-38.4-38.4l-26.3-26.3l0,0
			c1.9-3,3.8-6.1,5.5-9.1c33.5-59,33.5-131.8,0-190.8C16,86.1,14.1,83,12.2,80l26.1-26.1l38.6-38.6c27.2,35.3,44.8,75.6,52.7,117.4
			l0,0c0.3,1.7,0.6,3.4,0.9,5.2C135.8,168.8,135.8,200.4,130.5,231.3z"/>
		<path fill="#FFFFFF" d="M233.3,236.5c7.9,41.8,25.5,82.1,52.7,117.4c-3-1.9-6.1-3.8-9.1-5.5c-25-34.2-41.3-72.8-48.7-112.8
			c-6.3-33.7-6.3-68.3,0-101.9c7.4-39.9,23.7-78.6,48.7-112.8c3.1-1.7,6.1-3.6,9.1-5.5c-27.2,35.3-44.8,75.6-52.7,117.4
			C226.9,167,226.9,202.2,233.3,236.5z"/>
		<path fill="#FFFFFF" d="M134.7,235.5c-7.4,39.9-23.7,78.6-48.7,112.8c-3.1,1.7-6.1,3.6-9.1,5.5c27.2-35.3,44.8-75.6,52.7-117.4
			c6.5-34.3,6.5-69.5,0-103.8c-7.9-41.8-25.5-82.1-52.7-117.4c3,1.9,6.1,3.8,9.1,5.5c25,34.2,41.3,72.8,48.7,112.8
			C141,167.3,141,201.9,134.7,235.5z"/>
		<polygon fill="#FFFFFF" points="76.9,353.8 79.3,350.7 13.3,287.5 12.2,289.1 		"/>
		<polygon fill="#FFFFFF" points="350.7,289.1 348,284.8 284.4,351.7 286,353.8 		"/>
	</g>
</g>
</svg>
