<?xml version="1.0" encoding="utf-8"?>
<!-- Generator: Adobe Illustrator 22.0.1, SVG Export Plug-In . SVG Version: 6.00 Build 0)  -->
<svg version="1.1" id="Layer_1" xmlns="http://www.w3.org/2000/svg" xmlns:xlink="http://www.w3.org/1999/xlink" x="0px" y="0px"
	 viewBox="0 0 1200 370" enable-background="new 0 0 1200 370" xml:space="preserve">
<g>
	<g>
		<path d="M522.6,172v-46.1c0-2.3,1.7-4.2,4-4.5L555,118c2.7-0.3,5.1,1.8,5.1,4.5v124.2c0,2.5-2,4.5-4.5,4.5h-28.5
			c-2.5,0-4.5-2-4.5-4.5V196h-55.1v50.7c0,2.5-2,4.5-4.5,4.5h-28.5c-2.5,0-4.5-2-4.5-4.5V125.9c0-2.3,1.7-4.2,4-4.5l28.5-3.4
			c2.7-0.3,5.1,1.8,5.1,4.5V172H522.6z"/>
		<path d="M599.3,246.7V125.9c0-2.3,1.7-4.2,4-4.5l28.6-3.4c2.7-0.3,5.1,1.8,5.1,4.5v124.2c0,2.5-2,4.5-4.5,4.5h-28.6
			C601.3,251.2,599.3,249.2,599.3,246.7z"/>
		<path d="M938.8,128.9c-10.8-7.6-25.2-8.8-43.2-8.8h-53.6c-2.5,0-4.5,2-4.5,4.5v122.1c0,2.5,2,4.5,4.5,4.5h28.6
			c2.5,0,4.5-2,4.5-4.5v-37.1h20.4c17.9,0,32.3-1.6,43.2-9.4c10.9-7.8,14.9-21.2,14.9-35.8C953.5,149.9,949.6,136.5,938.8,128.9z
			 M895.9,187.6c-8.8,0-20.9,0-20.9,0V142c0,0,9-0.2,20-0.2c11,0,22.6,4.7,22.6,22.9C917.7,182.8,907,187.6,895.9,187.6z"/>
		<path d="M982.6,246.7V125.9c0-2.3,1.7-4.2,4-4.5l28.6-3.4c2.7-0.3,5.1,1.8,5.1,4.5v124.2c0,2.5-2,4.5-4.5,4.5h-28.6
			C984.6,251.2,982.6,249.2,982.6,246.7z"/>
		<path d="M1150.8,120.1h28c2.5,0,3.9,2.9,2.4,4.9l-45.2,57.9l50.9,63.5c1.6,2,0.2,4.9-2.4,4.9h-33.7c-2.7,0-5.3-1.2-7.1-3.4
			l-32.1-40.1l-30.8,40c-1.7,2.2-4.4,3.5-7.2,3.5l-28.4,0c-2.5,0-3.9-2.9-2.4-4.9l49.5-62.5l-47-58.8c-1.6-2-0.2-4.9,2.4-4.9h33.6
			c2.8,0,5.4,1.3,7.1,3.4l28.3,35.5l26.8-35.3C1145.3,121.4,1148,120.1,1150.8,120.1z"/>
		<path d="M802.9,186c0-25.8-3.6-44.5-21.3-56.2c-12.1-7.9-27.6-11.8-46.2-11.8c-18.6,0-33.9,3.9-46.1,11.8
			c-17.7,11.6-21.5,30.4-21.5,56.2c0,25.8,3.6,44.5,21.3,56.2c9.9,6.4,21.9,10.2,36.1,11.4l13.9,21.1c6.6,10,17.8,16,29.8,16h14.2
			c2.5,0,4.5-2,4.5-4.5V269c0-2.5-2-4.5-4.5-4.5h-14.2c-3.1,0-6.1-1.6-7.8-4.2l-5.3-8c9.7-1.9,18.2-5.2,25.6-10
			C799.1,230.6,802.9,211.8,802.9,186z M735.3,231.5c-22.6,0-26.4-15.2-26.4-45.4c0-30.3,3.8-45.7,26.4-45.7
			c22.6,0,26.4,15.2,26.4,45.5C761.8,216.3,758,231.5,735.3,231.5z"/>
	</g>
	<g>
		<linearGradient id="SVGID_1_" gradientUnits="userSpaceOnUse" x1="65.3649" y1="76.4344" x2="341.2714" y2="76.4344">
			<stop  offset="0" style="stop-color:#2D39B2"/>
			<stop  offset="0.1119" style="stop-color:#2643B9"/>
			<stop  offset="0.3983" style="stop-color:#1856C6"/>
			<stop  offset="0.6915" style="stop-color:#1061CD"/>
			<stop  offset="1" style="stop-color:#0D65D0"/>
		</linearGradient>
		<path fill="url(#SVGID_1_)" d="M350.7,80c-35.3,27.2-75.6,44.8-117.4,52.7c-1.7,0.3-3.4,0.6-5.2,0.9c-30.9,5.3-62.5,5.3-93.4,0
			c-1.7-0.3-3.4-0.6-5.2-0.9C87.8,124.8,47.5,107.2,12.2,80l64.7-64.7c0,0,0,0,0,0c0,0,0,0,0,0c3,1.9,6.1,3.8,9.1,5.5
			c59,33.5,131.9,33.5,190.8,0c3.1-1.7,6.1-3.6,9.1-5.5L350.7,80z"/>
		<linearGradient id="SVGID_2_" gradientUnits="userSpaceOnUse" x1="84.6831" y1="292.7111" x2="338.719" y2="292.7111">
			<stop  offset="0" style="stop-color:#2D39B2"/>
			<stop  offset="0.1119" style="stop-color:#2643B9"/>
			<stop  offset="0.3983" style="stop-color:#1856C6"/>
			<stop  offset="0.6915" style="stop-color:#1061CD"/>
			<stop  offset="1" style="stop-color:#0D65D0"/>
		</linearGradient>
		<path fill="url(#SVGID_2_)" d="M350.7,289.1l-22.8,22.8L286,353.8c-3-1.9-6.1-3.8-9.1-5.5c-59-33.5-131.8-33.5-190.8,0
			c-3.1,1.7-6.1,3.6-9.1,5.5c0,0,0,0,0,0c0,0,0,0,0,0l-64.7-64.7c35.3-27.2,75.6-44.8,117.4-52.7c1.7-0.3,3.4-0.6,5.2-0.9
			c30.9-5.2,62.5-5.2,93.4,0c1.7,0.3,3.4,0.6,5.2,0.9C275.1,244.4,315.4,261.9,350.7,289.1z"/>
		<linearGradient id="SVGID_3_" gradientUnits="userSpaceOnUse" x1="121.6774" y1="337.1636" x2="278.6164" y2="337.1636">
			<stop  offset="0" style="stop-color:#1769E6"/>
			<stop  offset="0.5992" style="stop-color:#136BE6"/>
			<stop  offset="1" style="stop-color:#0C6FE5"/>
		</linearGradient>
		<path fill="url(#SVGID_3_)" d="M286,351.1v2.7c-3-1.9-6.1-3.8-9.1-5.5c-59-33.5-131.8-33.5-190.8,0c-3.1,1.7-6.1,3.6-9.1,5.5v-2.7
			c3-1.9,6.1-3.8,9.1-5.5c59-33.5,131.8-33.5,190.8,0C280,347.4,283,349.2,286,351.1z"/>
		
			<linearGradient id="SVGID_4_" gradientUnits="userSpaceOnUse" x1="5282.9404" y1="2423.3787" x2="5488.978" y2="2423.3787" gradientTransform="matrix(-1 0 0 -1 5558.5298 2455.3611)">
			<stop  offset="0" style="stop-color:#0087E7"/>
			<stop  offset="0.108" style="stop-color:#0575D7"/>
			<stop  offset="0.2797" style="stop-color:#0C5FC3"/>
			<stop  offset="0.4688" style="stop-color:#1050B5"/>
			<stop  offset="0.6869" style="stop-color:#1347AD"/>
			<stop  offset="1" style="stop-color:#1444AA"/>
		</linearGradient>
		<path fill="url(#SVGID_4_)" d="M76.9,18v-2.7c3,1.9,6.1,3.8,9.1,5.5c59,33.5,131.8,33.5,190.8,0c3.1-1.7,6.1-3.6,9.1-5.5V18
			c-3,1.9-6.1,3.8-9.1,5.5C217.9,57,145,57,86,23.5C83,21.8,79.9,19.9,76.9,18z"/>
		<linearGradient id="SVGID_5_" gradientUnits="userSpaceOnUse" x1="96.367" y1="111.2743" x2="298.6747" y2="111.2743">
			<stop  offset="0" style="stop-color:#1444AA"/>
			<stop  offset="8.240521e-03" style="stop-color:#1445AB"/>
			<stop  offset="0.2364" style="stop-color:#1057C4"/>
			<stop  offset="0.4728" style="stop-color:#0E65D7"/>
			<stop  offset="0.7211" style="stop-color:#0C6CE1"/>
			<stop  offset="1" style="stop-color:#0C6FE5"/>
		</linearGradient>
		<path fill="url(#SVGID_5_)" d="M350.7,80c-1.9,3-3.8,6.1-5.5,9.1c-34.2,25-72.8,41.3-112.8,48.7c-33.7,6.3-68.2,6.3-101.9,0
			c-39.9-7.4-78.6-23.7-112.8-48.7C16,86.1,14.1,83,12.2,80c35.3,27.2,75.6,44.8,117.4,52.7h0c1.7,0.3,3.4,0.6,5.2,0.9
			c30.9,5.3,62.5,5.3,93.4,0c1.7-0.3,3.4-0.6,5.2-0.9h0C275.1,124.8,315.4,107.2,350.7,80z"/>
		<linearGradient id="SVGID_6_" gradientUnits="userSpaceOnUse" x1="16.8664" y1="257.8719" x2="312.4205" y2="257.8719">
			<stop  offset="0" style="stop-color:#0C6FE5"/>
			<stop  offset="0.2789" style="stop-color:#0C6CE1"/>
			<stop  offset="0.5272" style="stop-color:#0E65D7"/>
			<stop  offset="0.7636" style="stop-color:#1057C4"/>
			<stop  offset="0.9918" style="stop-color:#1445AB"/>
			<stop  offset="1" style="stop-color:#1444AA"/>
		</linearGradient>
		<path fill="url(#SVGID_6_)" d="M350.7,289.1L350.7,289.1c-35.3-27.2-75.6-44.8-117.4-52.7h0c-1.7-0.3-3.4-0.6-5.2-0.9
			c-30.9-5.3-62.5-5.3-93.4,0c-1.7,0.3-3.4,0.6-5.2,0.9c-41.8,7.9-82.1,25.5-117.4,52.7c1.9-3,3.8-6.1,5.5-9.1
			c34.2-25,72.8-41.3,112.8-48.7c33.7-6.3,68.2-6.3,101.9,0c39.9,7.4,78.6,23.7,112.8,48.7C346.9,283.1,348.8,286.1,350.7,289.1z"/>
		<linearGradient id="SVGID_7_" gradientUnits="userSpaceOnUse" x1="289.5957" y1="340.9261" x2="289.5957" y2="7.6558">
			<stop  offset="0" style="stop-color:#004FC5"/>
			<stop  offset="0.2119" style="stop-color:#0062D0"/>
			<stop  offset="0.5483" style="stop-color:#0087E7"/>
			<stop  offset="0.7543" style="stop-color:#047FE6"/>
			<stop  offset="0.9988" style="stop-color:#0C6FE5"/>
		</linearGradient>
		<path fill="url(#SVGID_7_)" d="M345.2,280c1.8,3.1,3.6,6.1,5.5,9.1l0,0l-22.8,22.8L286,353.8c-27.2-35.3-44.8-75.6-52.7-117.4
			c-0.3-1.7-0.6-3.4-0.9-5.2c-5.3-30.9-5.3-62.5,0-93.4c0.3-1.7,0.6-3.4,0.9-5.2c7.9-41.8,25.5-82.1,52.7-117.4L350.7,80
			c-1.9,3-3.8,6.1-5.5,9.1C311.7,148.2,311.7,221,345.2,280z"/>
		<linearGradient id="SVGID_8_" gradientUnits="userSpaceOnUse" x1="73.3239" y1="358.0856" x2="73.3239" y2="40.5967">
			<stop  offset="0" style="stop-color:#004FC5"/>
			<stop  offset="0.1068" style="stop-color:#0058CF"/>
			<stop  offset="0.2848" style="stop-color:#0070E8"/>
			<stop  offset="0.4145" style="stop-color:#0086FF"/>
			<stop  offset="1" style="stop-color:#00B4FF"/>
		</linearGradient>
		<path fill="url(#SVGID_8_)" d="M130.5,231.3c-0.3,1.7-0.6,3.4-0.9,5.2c-7.9,41.8-25.5,82.1-52.7,117.4l-38.4-38.4l-26.3-26.3
			c0,0,0,0,0,0c1.9-3,3.8-6.1,5.5-9.1c33.5-59,33.5-131.8,0-190.8C16,86.1,14.1,83,12.2,80l26.1-26.1l38.6-38.6
			c27.2,35.3,44.8,75.6,52.7,117.4h0c0.3,1.7,0.6,3.4,0.9,5.2C135.8,168.8,135.8,200.4,130.5,231.3z"/>
		<linearGradient id="SVGID_9_" gradientUnits="userSpaceOnUse" x1="254.7562" y1="328.528" x2="254.7562" y2="31.0412">
			<stop  offset="0" style="stop-color:#0C6FE5"/>
			<stop  offset="0.2487" style="stop-color:#0B73E6"/>
			<stop  offset="0.4852" style="stop-color:#097EEB"/>
			<stop  offset="0.7168" style="stop-color:#0691F2"/>
			<stop  offset="0.944" style="stop-color:#01ACFC"/>
			<stop  offset="1" style="stop-color:#00B4FF"/>
		</linearGradient>
		<path fill="url(#SVGID_9_)" d="M233.3,236.5c7.9,41.8,25.5,82.1,52.7,117.4c-3-1.9-6.1-3.8-9.1-5.5c-25-34.2-41.3-72.8-48.7-112.8
			c-6.3-33.7-6.3-68.3,0-101.9c7.4-39.9,23.7-78.6,48.7-112.8c3.1-1.7,6.1-3.6,9.1-5.5c-27.2,35.3-44.8,75.6-52.7,117.4
			C226.9,167,226.9,202.2,233.3,236.5z"/>
		<linearGradient id="SVGID_10_" gradientUnits="userSpaceOnUse" x1="108.166" y1="372.5739" x2="108.166" y2="19.9166">
			<stop  offset="0" style="stop-color:#004FC5"/>
			<stop  offset="0.2748" style="stop-color:#0053C7"/>
			<stop  offset="0.5361" style="stop-color:#005ECE"/>
			<stop  offset="0.7912" style="stop-color:#0071DA"/>
			<stop  offset="1" style="stop-color:#0087E7"/>
		</linearGradient>
		<path fill="url(#SVGID_10_)" d="M134.7,235.5c-7.4,39.9-23.7,78.6-48.7,112.8c-3.1,1.7-6.1,3.6-9.1,5.5
			c27.2-35.3,44.8-75.6,52.7-117.4c6.5-34.3,6.5-69.5,0-103.8c-7.9-41.8-25.5-82.1-52.7-117.4c3,1.9,6.1,3.8,9.1,5.5
			c25,34.2,41.3,72.8,48.7,112.8C141,167.3,141,201.9,134.7,235.5z"/>
	</g>
	<linearGradient id="SVGID_11_" gradientUnits="userSpaceOnUse" x1="12.2013" y1="320.652" x2="105.3069" y2="320.652">
		<stop  offset="0" style="stop-color:#0C6FE5"/>
		<stop  offset="0.2487" style="stop-color:#0B73E6"/>
		<stop  offset="0.4852" style="stop-color:#097EEB"/>
		<stop  offset="0.7168" style="stop-color:#0691F2"/>
		<stop  offset="0.944" style="stop-color:#01ACFC"/>
		<stop  offset="1" style="stop-color:#00B4FF"/>
	</linearGradient>
	<polygon fill="url(#SVGID_11_)" points="76.9,353.8 79.3,350.7 13.3,287.5 12.2,289.1 	"/>
	<linearGradient id="SVGID_12_" gradientUnits="userSpaceOnUse" x1="287.3359" y1="328.6804" x2="392.7741" y2="295.5032">
		<stop  offset="0" style="stop-color:#0C6FE5"/>
		<stop  offset="0.2487" style="stop-color:#0B73E6"/>
		<stop  offset="0.4852" style="stop-color:#097EEB"/>
		<stop  offset="0.7168" style="stop-color:#0691F2"/>
		<stop  offset="0.944" style="stop-color:#01ACFC"/>
		<stop  offset="1" style="stop-color:#00B4FF"/>
	</linearGradient>
	<polygon fill="url(#SVGID_12_)" points="350.7,289.1 348,284.8 284.4,351.7 286,353.8 	"/>
</g>
</svg>
