<?xml version="1.0" encoding="utf-8"?>
<!-- Generator: Adobe Illustrator 22.0.1, SVG Export Plug-In . SVG Version: 6.00 Build 0)  -->
<svg version="1.1" id="Layer_1" xmlns="http://www.w3.org/2000/svg" xmlns:xlink="http://www.w3.org/1999/xlink" x="0px" y="0px"
	 viewBox="0 0 320 320" enable-background="new 0 0 320 320" xml:space="preserve">
<g>
	<path fill="#D8D8E6" d="M228.9,82.2c0,11.9-8.3,23.8-24.7,32.9l-44.2,24.3v0.3c-23.1-1.5-47.3,2.8-65.4,12.8l-44.2,24.3V75.8
		l44.2-24.3C126.4,33.9,176.7,34,207,51.5C221.6,60.1,228.9,71.1,228.9,82.2z"/>
	<path fill="#1E306E" d="M50.5,179.9c-0.5,0-1.1-0.1-1.5-0.4c-0.9-0.5-1.5-1.5-1.5-2.6V75.8c0-1.1,0.6-2.1,1.6-2.6l44.2-24.3
		c32.6-17.9,84.3-17.9,115.3,0.2c15.1,8.8,23.4,20.6,23.4,33.3c0,13.6-9.3,26.2-26.2,35.5l-43.2,23.8c-0.1,0.1-0.2,0.2-0.3,0.3
		c-0.6,0.6-1.4,0.9-2.2,0.8c-23.5-1.5-46.7,3.1-63.8,12.5l-44.2,24.3C51.5,179.7,51,179.9,50.5,179.9z M53.5,77.5v94.2l39.7-21.9
		c17.7-9.8,41.6-14.6,65.7-13.3l43.9-24.2c14.7-8.1,23.1-19.1,23.1-30.2c0-10.5-7.3-20.4-20.4-28.1C176.1,37.1,127,37,96.1,54.1
		L53.5,77.5z"/>
</g>
<g>
	<path fill="#FFFFFF" d="M159.9,79.5v100.8c-17.3-1.1-34-5.4-47-12.9c-14.6-8.5-21.9-19.6-21.9-30.7c0-11.9,8.3-23.8,24.7-32.9
		L159.9,79.5z"/>
	<path fill="#1E306E" d="M159.9,183.3c-0.1,0-0.1,0-0.2,0c-18.6-1.2-35.2-5.8-48.3-13.3c-15.1-8.8-23.4-20.6-23.4-33.3
		c0-13.6,9.3-26.2,26.2-35.5l44.2-24.3c0.9-0.5,2.1-0.5,3,0c0.9,0.5,1.5,1.5,1.5,2.6v100.8c0,0.8-0.3,1.6-0.9,2.2
		C161.4,183,160.7,183.3,159.9,183.3z M156.9,84.6l-39.7,21.9c-14.7,8.1-23.1,19.1-23.1,30.2c0,10.5,7.2,20.4,20.4,28.1
		c11.3,6.6,26.3,10.9,42.4,12.3V84.6z"/>
</g>
<g>
	<path fill="#FFFFFF" d="M228.9,82.2v101.1c0,11.9-8.3,23.8-24.7,32.9l-44.2,24.3V139.4l44.2-24.3C220.7,106,228.9,94.1,228.9,82.2z
		"/>
	<path fill="#1E306E" d="M160.1,243.5c-0.5,0-1.1-0.1-1.5-0.4c-0.9-0.5-1.5-1.5-1.5-2.6V139.4c0-1.1,0.6-2.1,1.6-2.6l44.2-24.3
		c14.7-8.1,23.1-19.1,23.1-30.2c0-1.7,1.3-3,3-3s3,1.3,3,3v101.1c0,13.6-9.3,26.2-26.2,35.5l-44.2,24.3
		C161.1,243.4,160.6,243.5,160.1,243.5z M163.1,141.2v94.2l39.7-21.9c14.9-8.2,23.1-19,23.1-30.2v-82.8
		c-4.4,6.4-11.3,12.3-20.2,17.2L163.1,141.2z"/>
</g>
<g>
	<path fill="#D8D8E6" d="M269.5,143.1v101.1l-44.2,24.3c-31.8,17.5-82.1,17.5-112.4-0.1c-14.6-8.5-21.9-19.6-21.9-30.7V136.7
		c0,11.1,7.3,22.2,21.9,30.7c13,7.5,29.6,11.8,47,12.9c23.1,1.5,47.3-2.8,65.4-12.8L269.5,143.1z"/>
	<path fill="#1E306E" d="M168.7,284.6c-20.9,0-41.7-4.5-57.3-13.6c-15.1-8.8-23.4-20.6-23.4-33.3V136.7c0-1.7,1.3-3,3-3s3,1.3,3,3
		c0,10.5,7.2,20.4,20.4,28.1c12,7,28.3,11.4,45.6,12.5c23.5,1.5,46.7-3.1,63.8-12.5l44.2-24.3c0.9-0.5,2.1-0.5,3,0
		c0.9,0.5,1.5,1.5,1.5,2.6v101.1c0,1.1-0.6,2.1-1.6,2.6l-44.2,24.3C210.6,280.1,189.6,284.6,168.7,284.6z M94.1,154.7v83
		c0,10.5,7.2,20.4,20.4,28.1c29.4,17.1,78.5,17.1,109.4,0.1l42.6-23.5v-94.3l-39.7,21.9c-18,9.9-42.5,14.7-67.1,13.2
		c-18.6-1.2-35.2-5.8-48.3-13.3C103.9,165.6,98,160.4,94.1,154.7z"/>
</g>
<path fill="#1E306E" d="M212.4,277.1c-1.7,0-3-1.3-3-3V173.3c0-1.7,1.3-3,3-3s3,1.3,3,3v100.8C215.4,275.7,214.1,277.1,212.4,277.1z
	"/>
<path fill="#1E306E" d="M139.7,281.2c-1.7,0-3-1.3-3-3V177.4c0-1.7,1.3-3,3-3s3,1.3,3,3v100.8C142.7,279.9,141.4,281.2,139.7,281.2z
	"/>
<path fill="#1E306E" d="M110.7,109.8c-1.7,0-3-1.3-3-3V44.5c0-1.7,1.3-3,3-3s3,1.3,3,3v62.3C113.7,108.5,112.4,109.8,110.7,109.8z"
	/>
<path fill="#1E306E" d="M194.5,123.5c-1.7,0-3-1.3-3-3V45.7c0-1.7,1.3-3,3-3s3,1.3,3,3v74.8C197.5,122.1,196.2,123.5,194.5,123.5z"
	/>
</svg>
