<?xml version="1.0" encoding="utf-8"?>
<!-- Generator: Adobe Illustrator 22.0.1, SVG Export Plug-In . SVG Version: 6.00 Build 0)  -->
<svg version="1.1" id="Layer_1" xmlns="http://www.w3.org/2000/svg" xmlns:xlink="http://www.w3.org/1999/xlink" x="0px" y="0px"
	 viewBox="0 0 320 320" style="enable-background:new 0 0 320 320;" xml:space="preserve">
<style type="text/css">
	.st0{fill:url(#SVGID_1_);}
	.st1{fill:#1E306E;}
	.st2{fill:url(#SVGID_2_);}
	.st3{fill:url(#SVGID_3_);}
</style>
<g>
	<g>
		<linearGradient id="SVGID_1_" gradientUnits="userSpaceOnUse" x1="151.8866" y1="121.4391" x2="303.5501" y2="121.4391">
			<stop  offset="0" style="stop-color:#004FC5"/>
			<stop  offset="0.1068" style="stop-color:#0058CF"/>
			<stop  offset="0.2848" style="stop-color:#0070E8"/>
			<stop  offset="0.4145" style="stop-color:#0086FF"/>
			<stop  offset="1" style="stop-color:#00B4FF"/>
		</linearGradient>
		<polygon class="st0" points="303.6,98.4 303.6,232 151.9,144.4 151.9,10.9 		"/>
		<path class="st1" d="M303.5,235c-0.5,0-1-0.1-1.5-0.4L150.4,147c-0.9-0.5-1.5-1.5-1.5-2.6V10.9c0-1.1,0.6-2.1,1.5-2.6
			c0.9-0.5,2.1-0.5,3,0L305,95.8c0.9,0.5,1.5,1.5,1.5,2.6V232c0,1.1-0.6,2.1-1.5,2.6C304.6,234.9,304.1,235,303.5,235z M154.9,142.7
			l145.7,84.1V100.1L154.9,16.1V142.7z"/>
	</g>
	<g>
		<linearGradient id="SVGID_2_" gradientUnits="userSpaceOnUse" x1="84.4924" y1="160" x2="236.1559" y2="160">
			<stop  offset="0" style="stop-color:#004FC5"/>
			<stop  offset="0.1068" style="stop-color:#0058CF"/>
			<stop  offset="0.2848" style="stop-color:#0070E8"/>
			<stop  offset="0.4145" style="stop-color:#0086FF"/>
			<stop  offset="1" style="stop-color:#00B4FF"/>
		</linearGradient>
		<polygon class="st2" points="236.2,137 236.2,270.6 84.5,183 84.5,49.4 		"/>
		<path class="st1" d="M236.2,273.6c-0.5,0-1-0.1-1.5-0.4L83,185.6c-0.9-0.5-1.5-1.5-1.5-2.6V49.4c0-1.1,0.6-2.1,1.5-2.6
			c0.9-0.5,2.1-0.5,3,0l151.7,87.5c0.9,0.5,1.5,1.5,1.5,2.6v133.6c0,1.1-0.6,2.1-1.5,2.6C237.2,273.4,236.7,273.6,236.2,273.6z
			 M87.5,181.3l145.7,84.1V138.7L87.5,54.6V181.3z"/>
	</g>
	<path class="st1" d="M160.2,189.8c-8.7,0-17.3-1.1-25.7-3.4c-22.9-6.2-42.7-21-54.2-40.6c-0.8-1.4-0.4-3.3,1.1-4.1
		c1.4-0.8,3.3-0.4,4.1,1.1c10.8,18.3,29.2,32.1,50.6,37.9c20.5,5.6,43.2,3.7,63.7-5.1c12.9-5.5,24.7-13.7,36.2-21.6
		c1.4-0.9,3.2-0.6,4.2,0.8c0.9,1.4,0.6,3.2-0.8,4.2c-11.7,8.1-23.8,16.4-37.2,22.2C188.7,186.8,174.4,189.8,160.2,189.8z"/>
	<g>
		<linearGradient id="SVGID_3_" gradientUnits="userSpaceOnUse" x1="17.0983" y1="198.5609" x2="168.7617" y2="198.5609">
			<stop  offset="0" style="stop-color:#BFDBFF"/>
			<stop  offset="0.5517" style="stop-color:#57C6FF"/>
			<stop  offset="1" style="stop-color:#00B4FF"/>
		</linearGradient>
		<polygon class="st3" points="168.8,175.5 168.8,309.1 17.1,221.6 17.1,88 		"/>
		<path class="st1" d="M168.8,312.1c-0.5,0-1-0.1-1.5-0.4L15.6,224.2c-0.9-0.5-1.5-1.5-1.5-2.6V88c0-1.1,0.6-2.1,1.5-2.6
			c0.9-0.5,2.1-0.5,3,0l151.7,87.5c0.9,0.5,1.5,1.5,1.5,2.6v133.6c0,1.1-0.6,2.1-1.5,2.6C169.8,312,169.3,312.1,168.8,312.1z
			 M20.1,219.8l145.7,84.1V177.3L20.1,93.2V219.8z"/>
	</g>
	<path class="st1" d="M157.6,138.5c-8.7,0-19.3-1.4-30.7-5.7c-17.5-6.7-28.2-17.5-31.9-21.8c-7.3-8.3-10-16.7-11.9-22.7
		c-0.3-1-0.6-2-0.9-2.9c-0.5-1.6,0.3-3.3,1.8-3.8c1.6-0.5,3.3,0.3,3.8,1.8c0.3,0.9,0.6,1.9,1,3c1.9,5.9,4.3,13.2,10.7,20.6
		c3.5,4,13.4,13.9,29.6,20.1c16.6,6.3,31.1,5.9,40.4,4.4c13.8-2.2,27.4-7.3,40.4-12.2c1.5-0.6,3.3,0.2,3.9,1.8
		c0.6,1.6-0.2,3.3-1.8,3.9c-13.4,5-27.2,10.2-41.6,12.5C166.8,138,162.5,138.5,157.6,138.5z"/>
	<path class="st1" d="M302.7,145.4c-1.3,0-2.5-0.9-2.9-2.2c-8-28.4-36.5-44.4-52.8-51.4c-14.9-6.4-28.3-9.6-40.9-9.9
		c-14.9-0.3-28.7,3.9-39,11.7c-1.3,1-3.2,0.8-4.2-0.6c-1-1.3-0.8-3.2,0.6-4.2c11.3-8.7,26.5-13.2,42.7-12.9
		c13.4,0.3,27.5,3.6,43.1,10.3c17.3,7.4,47.6,24.4,56.3,55.3c0.4,1.6-0.5,3.3-2.1,3.7C303.3,145.4,303,145.4,302.7,145.4z"/>
	<path class="st1" d="M303.5,166.1c-0.5,0-0.9-0.1-1.4-0.3c-20.2-10.5-44.3-13-66.1-6.7c-1.6,0.5-3.3-0.5-3.7-2.1
		c-0.5-1.6,0.5-3.3,2.1-3.7c23.3-6.7,49-4.1,70.5,7.2c1.5,0.8,2,2.6,1.3,4C305.6,165.6,304.6,166.1,303.5,166.1z"/>
	<path class="st1" d="M168.8,245.9c-0.5,0-1-0.1-1.5-0.4L104,208.2c-0.9-0.5-1.5-1.5-1.5-2.6v-66.8c0-1.7,1.3-3,3-3s3,1.3,3,3v65.1
		l61.8,36.5c1.4,0.8,1.9,2.7,1.1,4.1C170.8,245.4,169.8,245.9,168.8,245.9z"/>
	<path class="st1" d="M42.9,239.2c-1.1,0-2.2-0.6-2.7-1.7c-0.7-1.5-0.1-3.3,1.4-4l62.7-30.6c1.5-0.7,3.3-0.1,4,1.4
		c0.7,1.5,0.1,3.3-1.4,4l-62.7,30.6C43.7,239.1,43.3,239.2,42.9,239.2z"/>
	<path class="st1" d="M47.8,201.2c-0.5,0-1.1-0.1-1.6-0.4c-0.9-0.5-1.4-1.5-1.4-2.6V160c0-1.1,0.6-2.1,1.6-2.7l28.8-14.9
		c0.9-0.5,2-0.4,2.9,0.1c0.9,0.5,1.4,1.5,1.4,2.6v38.2c0,1.1-0.6,2.2-1.6,2.7l-28.8,14.9C48.8,201,48.3,201.2,47.8,201.2z
		 M50.8,161.8v31.4l22.8-11.8V150L50.8,161.8z"/>
</g>
</svg>
