<?xml version="1.0" encoding="utf-8"?>
<!-- Generator: Adobe Illustrator 22.0.1, SVG Export Plug-In . SVG Version: 6.00 Build 0)  -->
<svg version="1.1" id="Layer_1" xmlns="http://www.w3.org/2000/svg" xmlns:xlink="http://www.w3.org/1999/xlink" x="0px" y="0px"
	 viewBox="0 0 320 320" style="enable-background:new 0 0 320 320;" xml:space="preserve">
<style type="text/css">
	.st0{fill:url(#SVGID_1_);}
	.st1{fill:#1E306E;}
	.st2{fill:url(#SVGID_2_);}
	.st3{fill:url(#SVGID_3_);}
	.st4{fill:url(#SVGID_4_);}
</style>
<g>
	<g>
		<linearGradient id="SVGID_1_" gradientUnits="userSpaceOnUse" x1="139.2791" y1="128.6505" x2="290.9425" y2="128.6505">
			<stop  offset="0" style="stop-color:#004FC5"/>
			<stop  offset="0.1068" style="stop-color:#0058CF"/>
			<stop  offset="0.2848" style="stop-color:#0070E8"/>
			<stop  offset="0.4145" style="stop-color:#0086FF"/>
			<stop  offset="1" style="stop-color:#00B4FF"/>
		</linearGradient>
		<polygon class="st0" points="290.9,100.6 290.9,244.2 139.3,156.7 139.3,13.1 		"/>
		<path class="st1" d="M290.9,247.2c-0.5,0-1-0.1-1.5-0.4l-151.7-87.6c-0.9-0.5-1.5-1.5-1.5-2.6l0-143.6c0-1.1,0.6-2.1,1.5-2.6
			c0.9-0.5,2.1-0.5,3,0L292.4,98c0.9,0.5,1.5,1.5,1.5,2.6v143.6c0,1.1-0.6,2.1-1.5,2.6C292,247.1,291.5,247.2,290.9,247.2z
			 M142.3,154.9L287.9,239V102.4L142.3,18.3L142.3,154.9z"/>
	</g>
	<g>
		<linearGradient id="SVGID_2_" gradientUnits="userSpaceOnUse" x1="27.1576" y1="221.382" x2="290.9425" y2="221.382">
			<stop  offset="0" style="stop-color:#BFDBFF"/>
			<stop  offset="0.5517" style="stop-color:#57C6FF"/>
			<stop  offset="1" style="stop-color:#00B4FF"/>
		</linearGradient>
		<polygon class="st2" points="178.8,308.9 27.2,221.4 178.8,133.8 290.9,198.6 290.9,244.2 		"/>
		<path class="st1" d="M178.8,311.9c-0.5,0-1-0.1-1.5-0.4L25.7,224c-0.9-0.5-1.5-1.5-1.5-2.6s0.6-2.1,1.5-2.6l151.7-87.5
			c0.9-0.5,2.1-0.5,3,0L292.4,196c0.9,0.5,1.5,1.5,1.5,2.6l0,45.6c0,1.1-0.6,2.1-1.5,2.6l-112.1,64.7
			C179.9,311.8,179.3,311.9,178.8,311.9z M33.2,221.4l145.7,84.1l109.1-63l0-42.2l-109.1-63L33.2,221.4z"/>
	</g>
	<g>
		<linearGradient id="SVGID_3_" gradientUnits="userSpaceOnUse" x1="109.564" y1="179.6355" x2="248.0782" y2="179.6355">
			<stop  offset="0" style="stop-color:#004FC5"/>
			<stop  offset="0.1068" style="stop-color:#0058CF"/>
			<stop  offset="0.2848" style="stop-color:#0070E8"/>
			<stop  offset="0.4145" style="stop-color:#0086FF"/>
			<stop  offset="1" style="stop-color:#00B4FF"/>
		</linearGradient>
		<polygon class="st3" points="248.1,219.6 248.1,139.6 178.8,99.7 109.6,139.6 109.6,219.6 178.8,259.6 		"/>
		<path class="st1" d="M178.8,262.6c-0.5,0-1-0.1-1.5-0.4l-69.3-40c-0.9-0.5-1.5-1.5-1.5-2.6v-80c0-1.1,0.6-2.1,1.5-2.6l69.3-40
			c0.9-0.5,2.1-0.5,3,0l69.3,40c0.9,0.5,1.5,1.5,1.5,2.6v80c0,1.1-0.6,2.1-1.5,2.6l-69.3,40C179.9,262.5,179.3,262.6,178.8,262.6z
			 M112.6,217.9l66.3,38.3l66.3-38.3v-76.5l-66.3-38.3l-66.3,38.3V217.9z M248.1,219.6L248.1,219.6L248.1,219.6z"/>
	</g>
	<g>
		<linearGradient id="SVGID_4_" gradientUnits="userSpaceOnUse" x1="140.5751" y1="139.6372" x2="404.8953" y2="139.6372">
			<stop  offset="0" style="stop-color:#BFDBFF"/>
			<stop  offset="0.5517" style="stop-color:#57C6FF"/>
			<stop  offset="1" style="stop-color:#00B4FF"/>
		</linearGradient>
		<polygon class="st4" points="178.8,179.6 109.6,139.6 178.8,99.7 248.1,139.6 		"/>
		<path class="st1" d="M178.8,182.6c-0.5,0-1-0.1-1.5-0.4l-69.3-40c-0.9-0.5-1.5-1.5-1.5-2.6s0.6-2.1,1.5-2.6l69.3-40
			c0.9-0.5,2.1-0.5,3,0l69.3,40c0.9,0.5,1.5,1.5,1.5,2.6s-0.6,2.1-1.5,2.6l-69.3,40C179.9,182.5,179.3,182.6,178.8,182.6z
			 M115.6,139.6l63.3,36.5l63.3-36.5l-63.3-36.5L115.6,139.6z"/>
	</g>
	<path class="st1" d="M178.8,262.6c-0.5,0-1-0.1-1.5-0.4l-69.3-40c-0.9-0.5-1.5-1.5-1.5-2.6v-80c0-1.1,0.6-2.1,1.5-2.6l69.3-40
		c0.9-0.5,2.1-0.5,3,0l69.3,40c0.9,0.5,1.5,1.5,1.5,2.6v80c0,1.1-0.6,2.1-1.5,2.6l-69.3,40C179.9,262.5,179.3,262.6,178.8,262.6z
		 M112.6,217.9l66.3,38.3l66.3-38.3v-76.5l-66.3-38.3l-66.3,38.3V217.9z M248.1,219.6L248.1,219.6L248.1,219.6z"/>
	<path class="st1" d="M178.8,262.6c-1.7,0-3-1.3-3-3v-80c0-1.7,1.3-3,3-3s3,1.3,3,3v80C181.8,261.3,180.5,262.6,178.8,262.6z"/>
	<path class="st1" d="M178.8,182.6c-0.5,0-1-0.1-1.5-0.4l-69.3-40c-1.4-0.8-1.9-2.7-1.1-4.1c0.8-1.4,2.7-1.9,4.1-1.1l67.8,39.1
		l67.8-39.1c1.4-0.8,3.3-0.3,4.1,1.1c0.8,1.4,0.3,3.3-1.1,4.1l-69.3,40C179.9,182.5,179.3,182.6,178.8,182.6z"/>
</g>
</svg>
