<?xml version="1.0" encoding="utf-8"?>
<!-- Generator: Adobe Illustrator 22.0.1, SVG Export Plug-In . SVG Version: 6.00 Build 0)  -->
<svg version="1.1" id="Layer_1" xmlns="http://www.w3.org/2000/svg" xmlns:xlink="http://www.w3.org/1999/xlink" x="0px" y="0px"
	 viewBox="0 0 320 320" enable-background="new 0 0 320 320" xml:space="preserve">
<g>
	<polygon fill="#FFFFFF" points="291.9,99.6 291.9,243.2 140.2,155.7 140.2,12.1 	"/>
	<path fill="#1E306E" d="M291.9,246.2c-0.5,0-1-0.1-1.5-0.4l-151.7-87.6c-0.9-0.5-1.5-1.5-1.5-2.6V12.1c0-1.1,0.6-2.1,1.5-2.6
		c0.9-0.5,2.1-0.5,3,0L293.4,97c0.9,0.5,1.5,1.5,1.5,2.6v143.6c0,1.1-0.6,2.1-1.5,2.6C292.9,246.1,292.4,246.2,291.9,246.2z
		 M143.2,153.9L288.9,238V101.4L143.2,17.3V153.9z"/>
</g>
<g>
	<polygon fill="#D8D8E6" points="179.8,307.9 28.1,220.4 179.8,132.8 291.9,197.6 291.9,243.2 	"/>
	<path fill="#1E306E" d="M179.8,310.9c-0.5,0-1-0.1-1.5-0.4L26.6,223c-0.9-0.5-1.5-1.5-1.5-2.6s0.6-2.1,1.5-2.6l151.7-87.5
		c0.9-0.5,2.1-0.5,3,0L293.4,195c0.9,0.5,1.5,1.5,1.5,2.6l0,45.6c0,1.1-0.6,2.1-1.5,2.6l-112.1,64.7
		C180.8,310.8,180.3,310.9,179.8,310.9z M34.1,220.4l145.7,84.1l109.1-63l0-42.2l-109.1-63L34.1,220.4z"/>
</g>
<g>
	<polygon fill="#FFFFFF" points="249,218.6 249,138.6 179.8,98.7 110.5,138.6 110.5,218.6 179.8,258.6 	"/>
	<path fill="#A3A3C4" d="M179.8,261.6c-0.5,0-1-0.1-1.5-0.4l-69.3-40c-0.9-0.5-1.5-1.5-1.5-2.6v-80c0-1.1,0.6-2.1,1.5-2.6l69.3-40
		c0.9-0.5,2.1-0.5,3,0l69.3,40c0.9,0.5,1.5,1.5,1.5,2.6v80c0,1.1-0.6,2.1-1.5,2.6l-69.3,40C180.8,261.5,180.3,261.6,179.8,261.6z
		 M113.5,216.9l66.3,38.3l66.3-38.3v-76.5l-66.3-38.3l-66.3,38.3V216.9z M249,218.6L249,218.6L249,218.6z"/>
</g>
<polygon fill="#D8D8E6" points="179.8,178.6 110.5,138.6 179.8,98.7 249,138.6 "/>
<path fill="#1E306E" d="M179.8,261.6c-0.5,0-1-0.1-1.5-0.4l-69.3-40c-0.9-0.5-1.5-1.5-1.5-2.6v-80c0-1.1,0.6-2.1,1.5-2.6l69.3-40
	c0.9-0.5,2.1-0.5,3,0l69.3,40c0.9,0.5,1.5,1.5,1.5,2.6v80c0,1.1-0.6,2.1-1.5,2.6l-69.3,40C180.8,261.5,180.3,261.6,179.8,261.6z
	 M113.5,216.9l66.3,38.3l66.3-38.3v-76.5l-66.3-38.3l-66.3,38.3V216.9z M249,218.6L249,218.6L249,218.6z"/>
<path fill="#1E306E" d="M179.8,261.6c-1.7,0-3-1.3-3-3v-80c0-1.7,1.3-3,3-3s3,1.3,3,3v80C182.8,260.3,181.4,261.6,179.8,261.6z"/>
<path fill="#1E306E" d="M179.8,181.6c-0.5,0-1-0.1-1.5-0.4l-69.3-40c-1.4-0.8-1.9-2.7-1.1-4.1c0.8-1.4,2.7-1.9,4.1-1.1l67.8,39.1
	l67.8-39.1c1.4-0.8,3.3-0.3,4.1,1.1c0.8,1.4,0.3,3.3-1.1,4.1l-69.3,40C180.8,181.5,180.3,181.6,179.8,181.6z"/>
</svg>
