<?xml version="1.0" encoding="utf-8"?>
<!-- Generator: Adobe Illustrator 22.0.1, SVG Export Plug-In . SVG Version: 6.00 Build 0)  -->
<svg version="1.1" id="Layer_1" xmlns="http://www.w3.org/2000/svg" xmlns:xlink="http://www.w3.org/1999/xlink" x="0px" y="0px"
	 viewBox="0 0 320 320" enable-background="new 0 0 320 320" xml:space="preserve">
<g>
	<polygon fill="#FFFFFF" points="159.7,310.5 8,222.9 159.7,135.4 311.3,222.9 	"/>
	<path fill="#1E306E" d="M159.7,313.5c-0.5,0-1-0.1-1.5-0.4L6.5,225.5C5.6,225,5,224,5,222.9s0.6-2.1,1.5-2.6l151.7-87.5
		c0.9-0.5,2.1-0.5,3,0l151.7,87.5c0.9,0.5,1.5,1.5,1.5,2.6s-0.6,2.1-1.5,2.6l-151.7,87.5C160.7,313.3,160.2,313.5,159.7,313.5z
		 M14,222.9L159.7,307l145.7-84.1l-145.7-84.1L14,222.9z"/>
</g>
<g>
	<g>
		<path fill="#1E306E" d="M111.2,285c-1,0-2-0.5-2.6-1.5c-0.8-1.4-0.3-3.3,1.1-4.1l151.7-87.5c1.4-0.8,3.3-0.3,4.1,1.1
			c0.8,1.4,0.3,3.3-1.1,4.1l-151.7,87.5C112.2,284.9,111.7,285,111.2,285z"/>
	</g>
	<g>
		<path fill="#1E306E" d="M60.3,256.4c-1,0-2-0.5-2.6-1.5c-0.8-1.4-0.3-3.3,1.1-4.1l151.7-87.5c1.4-0.8,3.3-0.3,4.1,1.1
			c0.8,1.4,0.3,3.3-1.1,4.1L61.8,256C61.3,256.2,60.8,256.4,60.3,256.4z"/>
	</g>
	<path fill="#1E306E" d="M208.3,285c-0.5,0-1-0.1-1.5-0.4L55.2,197.1c-1.4-0.8-1.9-2.7-1.1-4.1c0.8-1.4,2.7-1.9,4.1-1.1l151.7,87.5
		c1.4,0.8,1.9,2.7,1.1,4.1C210.4,284.5,209.3,285,208.3,285z"/>
	<path fill="#1E306E" d="M262.9,253.9c-0.5,0-1-0.1-1.5-0.4L109.7,166c-1.4-0.8-1.9-2.7-1.1-4.1c0.8-1.4,2.7-1.9,4.1-1.1l151.7,87.5
		c1.4,0.8,1.9,2.7,1.1,4.1C264.9,253.4,263.9,253.9,262.9,253.9z"/>
</g>
<g>
	<g>
		<polygon fill="#FFFFFF" points="276.8,149.7 276.8,77.4 159.7,9.8 42.6,77.4 42.6,149.7 159.7,217.2 		"/>
		<path fill="#1E306E" d="M159.7,220.2c-0.5,0-1-0.1-1.5-0.4L41.1,152.2c-0.9-0.5-1.5-1.5-1.5-2.6V77.4c0-1.1,0.6-2.1,1.5-2.6
			L158.2,7.2c0.9-0.5,2.1-0.5,3,0l117.1,67.6c0.9,0.5,1.5,1.5,1.5,2.6v72.2c0,1.1-0.6,2.1-1.5,2.6l-117.1,67.6
			C160.7,220.1,160.2,220.2,159.7,220.2z M45.6,147.9l114.1,65.9l114.1-65.9V79.2L159.7,13.3L45.6,79.2V147.9z M276.8,149.7
			L276.8,149.7L276.8,149.7z"/>
	</g>
	<g>
		<polygon fill="#D8D8E6" points="159.7,145 42.6,77.4 159.7,9.8 276.8,77.4 		"/>
		<path fill="#1E306E" d="M159.7,148c-0.5,0-1-0.1-1.5-0.4L41.1,80c-0.9-0.5-1.5-1.5-1.5-2.6s0.6-2.1,1.5-2.6L158.2,7.2
			c0.9-0.5,2.1-0.5,3,0l117.1,67.6c0.9,0.5,1.5,1.5,1.5,2.6s-0.6,2.1-1.5,2.6l-117.1,67.6C160.7,147.9,160.2,148,159.7,148z
			 M48.6,77.4l111.1,64.1l111.1-64.1L159.7,13.3L48.6,77.4z"/>
	</g>
	<g>
		<polygon fill="#FFFFFF" points="159.7,145 159.7,217.2 42.6,149.7 42.6,77.4 		"/>
		<path fill="#1E306E" d="M159.7,220.2c-0.5,0-1-0.1-1.5-0.4L41.1,152.2c-0.9-0.5-1.5-1.5-1.5-2.6V77.4c0-1.1,0.6-2.1,1.5-2.6
			c0.9-0.5,2.1-0.5,3,0l117.1,67.6c0.9,0.5,1.5,1.5,1.5,2.6v72.3c0,1.1-0.6,2.1-1.5,2.6C160.7,220.1,160.2,220.2,159.7,220.2z
			 M45.6,147.9L156.7,212v-65.3L45.6,82.6V147.9z"/>
	</g>
	<g>
		<path fill="#1E306E" d="M101.1,114.2c-1,0-2-0.5-2.6-1.5c-0.8-1.4-0.3-3.3,1.1-4.1L216.7,41c1.4-0.8,3.3-0.3,4.1,1.1
			s0.3,3.3-1.1,4.1l-117.1,67.6C102.2,114.1,101.7,114.2,101.1,114.2z"/>
	</g>
	<path fill="#1E306E" d="M159.7,80.4c-0.5,0-1-0.1-1.5-0.4L99.6,46.3c-1.4-0.8-1.9-2.7-1.1-4.1c0.8-1.4,2.7-1.9,4.1-1.1l58.5,33.8
		c1.4,0.8,1.9,2.7,1.1,4.1C161.7,79.9,160.7,80.4,159.7,80.4z"/>
	<path fill="#1E306E" d="M218.2,114.2c-1.7,0-3-1.3-3-3V43.6c0-1.7,1.3-3,3-3s3,1.3,3,3v67.6C221.2,112.9,219.9,114.2,218.2,114.2z"
		/>
</g>
</svg>
