<?xml version="1.0" encoding="utf-8"?>
<!-- Generator: Adobe Illustrator 22.0.1, SVG Export Plug-In . SVG Version: 6.00 Build 0)  -->
<svg version="1.1" id="Layer_1" xmlns="http://www.w3.org/2000/svg" xmlns:xlink="http://www.w3.org/1999/xlink" x="0px" y="0px"
	 viewBox="0 0 320 320" enable-background="new 0 0 320 320" xml:space="preserve">
<g>
	<g>
		<polygon fill="#D8D8E6" points="303.2,98.4 303.2,232 151.6,144.4 151.6,10.9 		"/>
		<path fill="#1E306E" d="M303.2,235c-0.5,0-1-0.1-1.5-0.4L150.1,147c-0.9-0.5-1.5-1.5-1.5-2.6V10.9c0-1.1,0.6-2.1,1.5-2.6
			c0.9-0.5,2.1-0.5,3,0l151.7,87.5c0.9,0.5,1.5,1.5,1.5,2.6V232c0,1.1-0.6,2.1-1.5,2.6C304.3,234.9,303.7,235,303.2,235z
			 M154.6,142.7l145.7,84.1V100.1L154.6,16.1V142.7z"/>
	</g>
	<g>
		<polygon fill="#D8D8E6" points="235.8,137 235.8,270.6 84.2,183 84.2,49.4 		"/>
		<path fill="#1E306E" d="M235.8,273.6c-0.5,0-1-0.1-1.5-0.4L82.7,185.6c-0.9-0.5-1.5-1.5-1.5-2.6V49.4c0-1.1,0.6-2.1,1.5-2.6
			c0.9-0.5,2.1-0.5,3,0l151.7,87.5c0.9,0.5,1.5,1.5,1.5,2.6v133.6c0,1.1-0.6,2.1-1.5,2.6C236.9,273.4,236.3,273.6,235.8,273.6z
			 M87.2,181.3l145.7,84.1V138.7L87.2,54.6V181.3z"/>
	</g>
	<path fill="#1E306E" d="M159.9,189.8c-8.7,0-17.3-1.1-25.7-3.4c-22.9-6.2-42.7-21-54.2-40.6c-0.8-1.4-0.4-3.3,1.1-4.1
		c1.4-0.8,3.3-0.4,4.1,1.1c10.8,18.3,29.2,32.1,50.6,37.9c20.5,5.6,43.2,3.7,63.7-5.1c12.9-5.5,24.7-13.7,36.2-21.6
		c1.4-0.9,3.2-0.6,4.2,0.8c0.9,1.4,0.6,3.2-0.8,4.2c-11.7,8.1-23.8,16.4-37.2,22.2C188.4,186.8,174.1,189.8,159.9,189.8z"/>
	<g>
		<polygon fill="#FFFFFF" points="168.4,175.5 168.4,309.1 16.8,221.6 16.8,88 		"/>
		<path fill="#1E306E" d="M168.4,312.1c-0.5,0-1-0.1-1.5-0.4L15.3,224.2c-0.9-0.5-1.5-1.5-1.5-2.6V88c0-1.1,0.6-2.1,1.5-2.6
			c0.9-0.5,2.1-0.5,3,0l151.7,87.5c0.9,0.5,1.5,1.5,1.5,2.6v133.6c0,1.1-0.6,2.1-1.5,2.6C169.5,312,169,312.1,168.4,312.1z
			 M19.8,219.8l145.7,84.1V177.3L19.8,93.2V219.8z"/>
	</g>
	<path fill="#1E306E" d="M157.3,138.5c-8.7,0-19.2-1.4-30.7-5.7c-17.5-6.7-28.2-17.5-31.9-21.8c-7.3-8.3-10-16.7-11.9-22.7
		c-0.3-1-0.6-2-0.9-2.9c-0.5-1.6,0.3-3.3,1.8-3.8c1.6-0.5,3.3,0.3,3.8,1.8c0.3,0.9,0.6,1.9,1,3c1.9,5.9,4.3,13.2,10.7,20.6
		c3.5,4,13.4,13.9,29.6,20.1c16.6,6.3,31.1,5.9,40.4,4.4c13.8-2.2,27.4-7.3,40.4-12.2c1.5-0.6,3.3,0.2,3.9,1.8
		c0.6,1.6-0.2,3.3-1.8,3.9c-13.4,5-27.2,10.2-41.6,12.5C166.5,138,162.2,138.5,157.3,138.5z"/>
	<path fill="#1E306E" d="M302.4,145.4c-1.3,0-2.5-0.9-2.9-2.2c-8-28.4-36.5-44.4-52.8-51.4c-14.9-6.4-28.3-9.6-40.9-9.9
		c-14.9-0.3-28.7,3.9-39,11.7c-1.3,1-3.2,0.8-4.2-0.6c-1-1.3-0.8-3.2,0.6-4.2c11.3-8.7,26.5-13.2,42.7-12.9
		c13.4,0.3,27.5,3.6,43.1,10.3c17.3,7.4,47.6,24.4,56.3,55.3c0.4,1.6-0.5,3.3-2.1,3.7C302.9,145.4,302.7,145.4,302.4,145.4z"/>
	<path fill="#1E306E" d="M303.1,166.1c-0.5,0-0.9-0.1-1.4-0.3c-20.2-10.5-44.3-13-66.1-6.7c-1.6,0.5-3.3-0.5-3.7-2.1
		c-0.5-1.6,0.5-3.3,2.1-3.7c23.3-6.7,49-4.1,70.5,7.2c1.5,0.8,2,2.6,1.3,4C305.3,165.6,304.2,166.1,303.1,166.1z"/>
	<path fill="#1E306E" d="M168.4,245.9c-0.5,0-1-0.1-1.5-0.4l-63.2-37.3c-0.9-0.5-1.5-1.5-1.5-2.6v-66.8c0-1.7,1.3-3,3-3s3,1.3,3,3
		v65.1l61.8,36.5c1.4,0.8,1.9,2.7,1.1,4.1C170.5,245.4,169.5,245.9,168.4,245.9z"/>
	<path fill="#1E306E" d="M42.5,239.2c-1.1,0-2.2-0.6-2.7-1.7c-0.7-1.5-0.1-3.3,1.4-4l62.7-30.6c1.5-0.7,3.3-0.1,4,1.4
		c0.7,1.5,0.1,3.3-1.4,4l-62.7,30.6C43.4,239.1,43,239.2,42.5,239.2z"/>
	<path fill="#1E306E" d="M47.5,201.2c-0.5,0-1.1-0.1-1.6-0.4c-0.9-0.5-1.4-1.5-1.4-2.6V160c0-1.1,0.6-2.1,1.6-2.7L75,142.4
		c0.9-0.5,2-0.4,2.9,0.1c0.9,0.5,1.4,1.5,1.4,2.6v38.2c0,1.1-0.6,2.2-1.6,2.7l-28.8,14.9C48.5,201,48,201.2,47.5,201.2z M50.5,161.8
		v31.4l22.8-11.8V150L50.5,161.8z"/>
</g>
</svg>
