<?xml version="1.0" encoding="utf-8"?>
<!-- Generator: Adobe Illustrator 22.0.1, SVG Export Plug-In . SVG Version: 6.00 Build 0)  -->
<svg version="1.1" id="Layer_1" xmlns="http://www.w3.org/2000/svg" xmlns:xlink="http://www.w3.org/1999/xlink" x="0px" y="0px"
	 viewBox="0 0 320 320" style="enable-background:new 0 0 320 320;" xml:space="preserve">
<style type="text/css">
	.st0{fill:url(#SVGID_1_);}
	.st1{fill:#1E306E;}
	.st2{fill:url(#SVGID_2_);}
	.st3{fill:url(#SVGID_3_);}
	.st4{fill:url(#SVGID_4_);}
</style>
<g>
	<g>
		<linearGradient id="SVGID_1_" gradientUnits="userSpaceOnUse" x1="8.3365" y1="222.7711" x2="311.6635" y2="222.7711">
			<stop  offset="0" style="stop-color:#004FC5"/>
			<stop  offset="0.1068" style="stop-color:#0058CF"/>
			<stop  offset="0.2848" style="stop-color:#0070E8"/>
			<stop  offset="0.4145" style="stop-color:#0086FF"/>
			<stop  offset="1" style="stop-color:#00B4FF"/>
		</linearGradient>
		<polygon class="st0" points="160,310.3 8.3,222.8 160,135.2 311.7,222.8 		"/>
		<path class="st1" d="M160,313.3c-0.5,0-1-0.1-1.5-0.4L6.8,225.4c-0.9-0.5-1.5-1.5-1.5-2.6s0.6-2.1,1.5-2.6l151.7-87.5
			c0.9-0.5,2.1-0.5,3,0l151.7,87.5c0.9,0.5,1.5,1.5,1.5,2.6s-0.6,2.1-1.5,2.6l-151.7,87.5C161,313.2,160.5,313.3,160,313.3z
			 M14.3,222.8L160,306.8l145.7-84.1L160,138.7L14.3,222.8z"/>
	</g>
	<g>
		<g>
			<path class="st1" d="M111.5,284.8c-1,0-2-0.5-2.6-1.5c-0.8-1.4-0.3-3.3,1.1-4.1l151.7-87.5c1.4-0.8,3.3-0.3,4.1,1.1
				c0.8,1.4,0.3,3.3-1.1,4.1L113,284.4C112.5,284.7,112,284.8,111.5,284.8z"/>
		</g>
		<g>
			<path class="st1" d="M60.6,256.2c-1,0-2-0.5-2.6-1.5c-0.8-1.4-0.3-3.3,1.1-4.1l151.7-87.5c1.4-0.8,3.3-0.3,4.1,1.1
				c0.8,1.4,0.3,3.3-1.1,4.1L62.1,255.8C61.7,256.1,61.2,256.2,60.6,256.2z"/>
		</g>
		<path class="st1" d="M208.6,284.8c-0.5,0-1-0.1-1.5-0.4L55.5,196.9c-1.4-0.8-1.9-2.7-1.1-4.1c0.8-1.4,2.7-1.9,4.1-1.1l151.7,87.5
			c1.4,0.8,1.9,2.7,1.1,4.1C210.7,284.3,209.7,284.8,208.6,284.8z"/>
		<path class="st1" d="M263.2,253.8c-0.5,0-1-0.1-1.5-0.4L110,165.8c-1.4-0.8-1.9-2.7-1.1-4.1c0.8-1.4,2.7-1.9,4.1-1.1l151.7,87.5
			c1.4,0.8,1.9,2.7,1.1,4.1C265.2,253.2,264.2,253.8,263.2,253.8z"/>
	</g>
	<g>
		<g>
			<linearGradient id="SVGID_2_" gradientUnits="userSpaceOnUse" x1="42.9228" y1="113.3944" x2="277.0772" y2="113.3944">
				<stop  offset="0" style="stop-color:#004FC5"/>
				<stop  offset="0.1068" style="stop-color:#0058CF"/>
				<stop  offset="0.2848" style="stop-color:#0070E8"/>
				<stop  offset="0.4145" style="stop-color:#0086FF"/>
				<stop  offset="1" style="stop-color:#00B4FF"/>
			</linearGradient>
			<polygon class="st2" points="277.1,149.5 277.1,77.3 160,9.7 42.9,77.3 42.9,149.5 160,217.1 			"/>
			<path class="st1" d="M160,220.1c-0.5,0-1-0.1-1.5-0.4L41.4,152.1c-0.9-0.5-1.5-1.5-1.5-2.6V77.3c0-1.1,0.6-2.1,1.5-2.6L158.5,7.1
				c0.9-0.5,2.1-0.5,3,0l117.1,67.6c0.9,0.5,1.5,1.5,1.5,2.6v72.2c0,1.1-0.6,2.1-1.5,2.6l-117.1,67.6C161,220,160.5,220.1,160,220.1
				z M45.9,147.8L160,213.6l114.1-65.9V79L160,13.2L45.9,79V147.8z M277.1,149.5L277.1,149.5L277.1,149.5z"/>
		</g>
		<g>
			<linearGradient id="SVGID_3_" gradientUnits="userSpaceOnUse" x1="42.9228" y1="77.2669" x2="277.0772" y2="77.2669">
				<stop  offset="0" style="stop-color:#BFDBFF"/>
				<stop  offset="0.5517" style="stop-color:#57C6FF"/>
				<stop  offset="1" style="stop-color:#00B4FF"/>
			</linearGradient>
			<polygon class="st3" points="160,144.8 42.9,77.3 160,9.7 277.1,77.3 			"/>
			<path class="st1" d="M160,147.8c-0.5,0-1-0.1-1.5-0.4L41.4,79.9c-0.9-0.5-1.5-1.5-1.5-2.6s0.6-2.1,1.5-2.6L158.5,7.1
				c0.9-0.5,2.1-0.5,3,0l117.1,67.6c0.9,0.5,1.5,1.5,1.5,2.6s-0.6,2.1-1.5,2.6l-117.1,67.6C161,147.7,160.5,147.8,160,147.8z
				 M48.9,77.3L160,141.4l111.1-64.1L160,13.2L48.9,77.3z"/>
		</g>
		<g>
			<linearGradient id="SVGID_4_" gradientUnits="userSpaceOnUse" x1="40.1157" y1="147.1809" x2="260.6836" y2="147.1809">
				<stop  offset="0" style="stop-color:#004FC5"/>
				<stop  offset="0.1068" style="stop-color:#0058CF"/>
				<stop  offset="0.2848" style="stop-color:#0070E8"/>
				<stop  offset="0.4145" style="stop-color:#0086FF"/>
				<stop  offset="1" style="stop-color:#00B4FF"/>
			</linearGradient>
			<polygon class="st4" points="160,144.8 160,217.1 42.9,149.5 42.9,77.3 			"/>
			<path class="st1" d="M160,220.1c-0.5,0-1-0.1-1.5-0.4L41.4,152.1c-0.9-0.5-1.5-1.5-1.5-2.6V77.3c0-1.1,0.6-2.1,1.5-2.6
				c0.9-0.5,2.1-0.5,3,0l117.1,67.6c0.9,0.5,1.5,1.5,1.5,2.6v72.3c0,1.1-0.6,2.1-1.5,2.6C161,220,160.5,220.1,160,220.1z
				 M45.9,147.8L157,211.9v-65.3L45.9,82.5V147.8z"/>
		</g>
		<g>
			<path class="st1" d="M101.5,114.1c-1,0-2-0.5-2.6-1.5c-0.8-1.4-0.3-3.3,1.1-4.1L217,40.9c1.4-0.8,3.3-0.3,4.1,1.1
				s0.3,3.3-1.1,4.1L103,113.6C102.5,113.9,102,114.1,101.5,114.1z"/>
		</g>
		<path class="st1" d="M160,80.3c-0.5,0-1-0.1-1.5-0.4L100,46.1c-1.4-0.8-1.9-2.7-1.1-4.1c0.8-1.4,2.7-1.9,4.1-1.1l58.5,33.8
			c1.4,0.8,1.9,2.7,1.1,4.1C162,79.7,161,80.3,160,80.3z"/>
		<path class="st1" d="M218.5,114.1c-1.7,0-3-1.3-3-3V43.5c0-1.7,1.3-3,3-3s3,1.3,3,3v67.6C221.5,112.7,220.2,114.1,218.5,114.1z"/>
	</g>
</g>
</svg>
